<?xml version="1.0" standalone="no"?>
<!DOCTYPE svg PUBLIC "-//W3C//DTD SVG 20010904//EN"
 "http://www.w3.org/TR/2001/REC-SVG-20010904/DTD/svg10.dtd">
<svg version="1.0" xmlns="http://www.w3.org/2000/svg"
 width="360.000000pt" height="360.000000pt" viewBox="0 0 360.000000 360.000000"
 preserveAspectRatio="xMidYMid meet">
<metadata>
Created by potrace 1.11, written by Peter Selinger 2001-2013
</metadata>
<g transform="translate(0.000000,360.000000) scale(0.100000,-0.100000)"
fill="#000000" stroke="none">
<path d="M730 2735 l0 -75 95 0 95 0 0 -300 0 -300 80 0 80 0 0 300 0 300 95
0 95 0 0 75 0 75 -270 0 -270 0 0 -75z"/>
<path d="M2020 2435 l0 -375 85 0 85 0 2 217 3 217 97 -214 97 -215 49 -3 48
-3 100 218 99 218 3 -217 2 -218 80 0 80 0 0 375 0 376 -87 -3 -88 -3 -115
-252 c-63 -139 -117 -252 -120 -253 -3 0 -57 114 -120 253 l-116 252 -92 3
-92 3 0 -376z"/>
<path d="M930 1485 c-283 -80 -378 -427 -173 -638 165 -170 443 -148 585 47
l28 40 -71 39 c-67 37 -72 39 -82 22 -14 -26 -56 -64 -92 -83 -19 -10 -55 -16
-95 -17 -81 0 -140 30 -185 93 -28 40 -30 50 -30 127 0 77 2 87 30 127 45 63
104 93 185 93 40 -1 76 -7 95 -17 36 -19 78 -57 92 -83 10 -17 15 -15 82 22
l71 39 -28 40 c-96 131 -261 191 -412 149z"/>
<path d="M2020 1115 l0 -375 85 0 85 0 2 217 3 217 97 -214 97 -215 49 -3 48
-3 100 218 99 218 3 -217 2 -218 80 0 80 0 0 375 0 376 -87 -3 -88 -3 -115
-252 c-63 -139 -117 -252 -120 -253 -3 0 -57 114 -120 253 l-116 252 -92 3
-92 3 0 -376z"/>
</g>
</svg>
