<svg
    viewBox="0 0 480 60"
    fill="none"
    role="img"
    xmlns="http://www.w3.org/2000/svg"
  >
    <title>Content hash: 0xce1c6429f6c1d6cd0ac58ac42752c7c37bfa62c9960fc671d1a037777a5b77b8</title>
    <rect width="480" height="60" fill="#FFFFFF" />
    <g>
      <rect x="0" y="0" width="10" height="10" fill="#F7F7F7" /><rect x="0" y="10" width="10" height="10" fill="#92F300" /><rect x="0" y="20" width="10" height="10" fill="#92F300" /><rect x="0" y="30" width="10" height="10" fill="#F7F7F7" /><rect x="0" y="40" width="10" height="10" fill="#92F300" /><rect x="0" y="50" width="10" height="10" fill="#92F300" /><rect x="10" y="0" width="10" height="10" fill="#7B8073" /><rect x="10" y="10" width="10" height="10" fill="#F2F2F2" /><rect x="10" y="20" width="10" height="10" fill="#92F300" /><rect x="10" y="30" width="10" height="10" fill="#F7F7F7" /><rect x="10" y="40" width="10" height="10" fill="#92F300" /><rect x="10" y="50" width="10" height="10" fill="#F2F2F2" /><rect x="20" y="0" width="10" height="10" fill="#7B8073" /><rect x="20" y="10" width="10" height="10" fill="#F2F2F2" /><rect x="20" y="20" width="10" height="10" fill="#F2F2F2" /><rect x="20" y="30" width="10" height="10" fill="#F2F2F2" /><rect x="20" y="40" width="10" height="10" fill="#92F300" /><rect x="20" y="50" width="10" height="10" fill="#F2F2F2" /><rect x="30" y="0" width="10" height="10" fill="#F2F2F2" /><rect x="30" y="10" width="10" height="10" fill="#7B8073" /><rect x="30" y="20" width="10" height="10" fill="#92F300" /><rect x="30" y="30" width="10" height="10" fill="#F2F2F2" /><rect x="30" y="40" width="10" height="10" fill="#92F300" /><rect x="30" y="50" width="10" height="10" fill="#F7F7F7" /><rect x="40" y="0" width="10" height="10" fill="#7ED100" /><rect x="40" y="10" width="10" height="10" fill="#92F300" /><rect x="40" y="20" width="10" height="10" fill="#7ED100" /><rect x="40" y="30" width="10" height="10" fill="#101010" /><rect x="40" y="40" width="10" height="10" fill="#F2F2F2" /><rect x="40" y="50" width="10" height="10" fill="#92F300" /><rect x="50" y="0" width="10" height="10" fill="#F2F2F2" /><rect x="50" y="10" width="10" height="10" fill="#F2F2F2" /><rect x="50" y="20" width="10" height="10" fill="#92F300" /><rect x="50" y="30" width="10" height="10" fill="#7B8073" /><rect x="50" y="40" width="10" height="10" fill="#F2F2F2" /><rect x="50" y="50" width="10" height="10" fill="#F2F2F2" /><rect x="60" y="0" width="10" height="10" fill="#92F300" /><rect x="60" y="10" width="10" height="10" fill="#7ED100" /><rect x="60" y="20" width="10" height="10" fill="#7B8073" /><rect x="60" y="30" width="10" height="10" fill="#7ED100" /><rect x="60" y="40" width="10" height="10" fill="#92F300" /><rect x="60" y="50" width="10" height="10" fill="#92F300" /><rect x="70" y="0" width="10" height="10" fill="#F2F2F2" /><rect x="70" y="10" width="10" height="10" fill="#8C8C8C" /><rect x="70" y="20" width="10" height="10" fill="#F7F7F7" /><rect x="70" y="30" width="10" height="10" fill="#F2F2F2" /><rect x="70" y="40" width="10" height="10" fill="#F2F2F2" /><rect x="70" y="50" width="10" height="10" fill="#92F300" /><rect x="80" y="0" width="10" height="10" fill="#7ED100" /><rect x="80" y="10" width="10" height="10" fill="#F2F2F2" /><rect x="80" y="20" width="10" height="10" fill="#92F300" /><rect x="80" y="30" width="10" height="10" fill="#F2F2F2" /><rect x="80" y="40" width="10" height="10" fill="#7ED100" /><rect x="80" y="50" width="10" height="10" fill="#F2F2F2" /><rect x="90" y="0" width="10" height="10" fill="#7B8073" /><rect x="90" y="10" width="10" height="10" fill="#7B8073" /><rect x="90" y="20" width="10" height="10" fill="#F2F2F2" /><rect x="90" y="30" width="10" height="10" fill="#7B8073" /><rect x="90" y="40" width="10" height="10" fill="#F7F7F7" /><rect x="90" y="50" width="10" height="10" fill="#7ED100" /><rect x="100" y="0" width="10" height="10" fill="#101010" /><rect x="100" y="10" width="10" height="10" fill="#7ED100" /><rect x="100" y="20" width="10" height="10" fill="#F2F2F2" /><rect x="100" y="30" width="10" height="10" fill="#F2F2F2" /><rect x="100" y="40" width="10" height="10" fill="#92F300" /><rect x="100" y="50" width="10" height="10" fill="#8C8C8C" /><rect x="110" y="0" width="10" height="10" fill="#7ED100" /><rect x="110" y="10" width="10" height="10" fill="#92F300" /><rect x="110" y="20" width="10" height="10" fill="#7ED100" /><rect x="110" y="30" width="10" height="10" fill="#F7F7F7" /><rect x="110" y="40" width="10" height="10" fill="#F2F2F2" /><rect x="110" y="50" width="10" height="10" fill="#8C8C8C" /><rect x="120" y="0" width="10" height="10" fill="#F7F7F7" /><rect x="120" y="10" width="10" height="10" fill="#8C8C8C" /><rect x="120" y="20" width="10" height="10" fill="#7ED100" /><rect x="120" y="30" width="10" height="10" fill="#7B8073" /><rect x="120" y="40" width="10" height="10" fill="#7B8073" /><rect x="120" y="50" width="10" height="10" fill="#F2F2F2" /><rect x="130" y="0" width="10" height="10" fill="#7ED100" /><rect x="130" y="10" width="10" height="10" fill="#101010" /><rect x="130" y="20" width="10" height="10" fill="#92F300" /><rect x="130" y="30" width="10" height="10" fill="#7B8073" /><rect x="130" y="40" width="10" height="10" fill="#8C8C8C" /><rect x="130" y="50" width="10" height="10" fill="#7B8073" /><rect x="140" y="0" width="10" height="10" fill="#F2F2F2" /><rect x="140" y="10" width="10" height="10" fill="#F2F2F2" /><rect x="140" y="20" width="10" height="10" fill="#8C8C8C" /><rect x="140" y="30" width="10" height="10" fill="#92F300" /><rect x="140" y="40" width="10" height="10" fill="#F2F2F2" /><rect x="140" y="50" width="10" height="10" fill="#101010" /><rect x="150" y="0" width="10" height="10" fill="#F2F2F2" /><rect x="150" y="10" width="10" height="10" fill="#F2F2F2" /><rect x="150" y="20" width="10" height="10" fill="#F2F2F2" /><rect x="150" y="30" width="10" height="10" fill="#8C8C8C" /><rect x="150" y="40" width="10" height="10" fill="#92F300" /><rect x="150" y="50" width="10" height="10" fill="#F2F2F2" /><rect x="160" y="0" width="10" height="10" fill="#F7F7F7" /><rect x="160" y="10" width="10" height="10" fill="#7B8073" /><rect x="160" y="20" width="10" height="10" fill="#F2F2F2" /><rect x="160" y="30" width="10" height="10" fill="#92F300" /><rect x="160" y="40" width="10" height="10" fill="#92F300" /><rect x="160" y="50" width="10" height="10" fill="#7ED100" /><rect x="170" y="0" width="10" height="10" fill="#F2F2F2" /><rect x="170" y="10" width="10" height="10" fill="#F7F7F7" /><rect x="170" y="20" width="10" height="10" fill="#7ED100" /><rect x="170" y="30" width="10" height="10" fill="#F2F2F2" /><rect x="170" y="40" width="10" height="10" fill="#92F300" /><rect x="170" y="50" width="10" height="10" fill="#8C8C8C" /><rect x="180" y="0" width="10" height="10" fill="#7ED100" /><rect x="180" y="10" width="10" height="10" fill="#101010" /><rect x="180" y="20" width="10" height="10" fill="#F2F2F2" /><rect x="180" y="30" width="10" height="10" fill="#7ED100" /><rect x="180" y="40" width="10" height="10" fill="#F2F2F2" /><rect x="180" y="50" width="10" height="10" fill="#8C8C8C" /><rect x="190" y="0" width="10" height="10" fill="#7B8073" /><rect x="190" y="10" width="10" height="10" fill="#92F300" /><rect x="190" y="20" width="10" height="10" fill="#F7F7F7" /><rect x="190" y="30" width="10" height="10" fill="#8C8C8C" /><rect x="190" y="40" width="10" height="10" fill="#7ED100" /><rect x="190" y="50" width="10" height="10" fill="#F2F2F2" /><rect x="200" y="0" width="10" height="10" fill="#101010" /><rect x="200" y="10" width="10" height="10" fill="#F2F2F2" /><rect x="200" y="20" width="10" height="10" fill="#92F300" /><rect x="200" y="30" width="10" height="10" fill="#101010" /><rect x="200" y="40" width="10" height="10" fill="#F2F2F2" /><rect x="200" y="50" width="10" height="10" fill="#F7F7F7" /><rect x="210" y="0" width="10" height="10" fill="#F2F2F2" /><rect x="210" y="10" width="10" height="10" fill="#7ED100" /><rect x="210" y="20" width="10" height="10" fill="#92F300" /><rect x="210" y="30" width="10" height="10" fill="#F7F7F7" /><rect x="210" y="40" width="10" height="10" fill="#F7F7F7" /><rect x="210" y="50" width="10" height="10" fill="#101010" /><rect x="220" y="0" width="10" height="10" fill="#101010" /><rect x="220" y="10" width="10" height="10" fill="#F2F2F2" /><rect x="220" y="20" width="10" height="10" fill="#7B8073" /><rect x="220" y="30" width="10" height="10" fill="#7ED100" /><rect x="220" y="40" width="10" height="10" fill="#92F300" /><rect x="220" y="50" width="10" height="10" fill="#8C8C8C" /><rect x="230" y="0" width="10" height="10" fill="#92F300" /><rect x="230" y="10" width="10" height="10" fill="#7ED100" /><rect x="230" y="20" width="10" height="10" fill="#F2F2F2" /><rect x="230" y="30" width="10" height="10" fill="#101010" /><rect x="230" y="40" width="10" height="10" fill="#8C8C8C" /><rect x="230" y="50" width="10" height="10" fill="#F2F2F2" /><rect x="240" y="0" width="10" height="10" fill="#F7F7F7" /><rect x="240" y="10" width="10" height="10" fill="#7ED100" /><rect x="240" y="20" width="10" height="10" fill="#8C8C8C" /><rect x="240" y="30" width="10" height="10" fill="#F2F2F2" /><rect x="240" y="40" width="10" height="10" fill="#7ED100" /><rect x="240" y="50" width="10" height="10" fill="#7B8073" /><rect x="250" y="0" width="10" height="10" fill="#7ED100" /><rect x="250" y="10" width="10" height="10" fill="#7B8073" /><rect x="250" y="20" width="10" height="10" fill="#F2F2F2" /><rect x="250" y="30" width="10" height="10" fill="#F2F2F2" /><rect x="250" y="40" width="10" height="10" fill="#F2F2F2" /><rect x="250" y="50" width="10" height="10" fill="#8C8C8C" /><rect x="260" y="0" width="10" height="10" fill="#7ED100" /><rect x="260" y="10" width="10" height="10" fill="#8C8C8C" /><rect x="260" y="20" width="10" height="10" fill="#92F300" /><rect x="260" y="30" width="10" height="10" fill="#F2F2F2" /><rect x="260" y="40" width="10" height="10" fill="#92F300" /><rect x="260" y="50" width="10" height="10" fill="#F2F2F2" /><rect x="270" y="0" width="10" height="10" fill="#7B8073" /><rect x="270" y="10" width="10" height="10" fill="#92F300" /><rect x="270" y="20" width="10" height="10" fill="#7B8073" /><rect x="270" y="30" width="10" height="10" fill="#7B8073" /><rect x="270" y="40" width="10" height="10" fill="#7B8073" /><rect x="270" y="50" width="10" height="10" fill="#92F300" /><rect x="280" y="0" width="10" height="10" fill="#F2F2F2" /><rect x="280" y="10" width="10" height="10" fill="#F7F7F7" /><rect x="280" y="20" width="10" height="10" fill="#F2F2F2" /><rect x="280" y="30" width="10" height="10" fill="#8C8C8C" /><rect x="280" y="40" width="10" height="10" fill="#8C8C8C" /><rect x="280" y="50" width="10" height="10" fill="#F2F2F2" /><rect x="290" y="0" width="10" height="10" fill="#F2F2F2" /><rect x="290" y="10" width="10" height="10" fill="#F2F2F2" /><rect x="290" y="20" width="10" height="10" fill="#F2F2F2" /><rect x="290" y="30" width="10" height="10" fill="#7ED100" /><rect x="290" y="40" width="10" height="10" fill="#101010" /><rect x="290" y="50" width="10" height="10" fill="#92F300" /><rect x="300" y="0" width="10" height="10" fill="#7ED100" /><rect x="300" y="10" width="10" height="10" fill="#7B8073" /><rect x="300" y="20" width="10" height="10" fill="#F2F2F2" /><rect x="300" y="30" width="10" height="10" fill="#101010" /><rect x="300" y="40" width="10" height="10" fill="#F2F2F2" /><rect x="300" y="50" width="10" height="10" fill="#8C8C8C" /><rect x="310" y="0" width="10" height="10" fill="#F7F7F7" /><rect x="310" y="10" width="10" height="10" fill="#8C8C8C" /><rect x="310" y="20" width="10" height="10" fill="#F2F2F2" /><rect x="310" y="30" width="10" height="10" fill="#F2F2F2" /><rect x="310" y="40" width="10" height="10" fill="#F2F2F2" /><rect x="310" y="50" width="10" height="10" fill="#7ED100" /><rect x="320" y="0" width="10" height="10" fill="#F7F7F7" /><rect x="320" y="10" width="10" height="10" fill="#101010" /><rect x="320" y="20" width="10" height="10" fill="#7B8073" /><rect x="320" y="30" width="10" height="10" fill="#8C8C8C" /><rect x="320" y="40" width="10" height="10" fill="#F2F2F2" /><rect x="320" y="50" width="10" height="10" fill="#101010" /><rect x="330" y="0" width="10" height="10" fill="#F7F7F7" /><rect x="330" y="10" width="10" height="10" fill="#92F300" /><rect x="330" y="20" width="10" height="10" fill="#92F300" /><rect x="330" y="30" width="10" height="10" fill="#7B8073" /><rect x="330" y="40" width="10" height="10" fill="#7ED100" /><rect x="330" y="50" width="10" height="10" fill="#F2F2F2" /><rect x="340" y="0" width="10" height="10" fill="#92F300" /><rect x="340" y="10" width="10" height="10" fill="#F2F2F2" /><rect x="340" y="20" width="10" height="10" fill="#F7F7F7" /><rect x="340" y="30" width="10" height="10" fill="#F7F7F7" /><rect x="340" y="40" width="10" height="10" fill="#7ED100" /><rect x="340" y="50" width="10" height="10" fill="#F2F2F2" /><rect x="350" y="0" width="10" height="10" fill="#F2F2F2" /><rect x="350" y="10" width="10" height="10" fill="#F7F7F7" /><rect x="350" y="20" width="10" height="10" fill="#92F300" /><rect x="350" y="30" width="10" height="10" fill="#92F300" /><rect x="350" y="40" width="10" height="10" fill="#F7F7F7" /><rect x="350" y="50" width="10" height="10" fill="#8C8C8C" /><rect x="360" y="0" width="10" height="10" fill="#101010" /><rect x="360" y="10" width="10" height="10" fill="#F2F2F2" /><rect x="360" y="20" width="10" height="10" fill="#7ED100" /><rect x="360" y="30" width="10" height="10" fill="#8C8C8C" /><rect x="360" y="40" width="10" height="10" fill="#F2F2F2" /><rect x="360" y="50" width="10" height="10" fill="#8C8C8C" /><rect x="370" y="0" width="10" height="10" fill="#7ED100" /><rect x="370" y="10" width="10" height="10" fill="#F2F2F2" /><rect x="370" y="20" width="10" height="10" fill="#F2F2F2" /><rect x="370" y="30" width="10" height="10" fill="#7ED100" /><rect x="370" y="40" width="10" height="10" fill="#92F300" /><rect x="370" y="50" width="10" height="10" fill="#7B8073" /><rect x="380" y="0" width="10" height="10" fill="#7B8073" /><rect x="380" y="10" width="10" height="10" fill="#8C8C8C" /><rect x="380" y="20" width="10" height="10" fill="#92F300" /><rect x="380" y="30" width="10" height="10" fill="#F2F2F2" /><rect x="380" y="40" width="10" height="10" fill="#101010" /><rect x="380" y="50" width="10" height="10" fill="#8C8C8C" /><rect x="390" y="0" width="10" height="10" fill="#7B8073" /><rect x="390" y="10" width="10" height="10" fill="#F7F7F7" /><rect x="390" y="20" width="10" height="10" fill="#7ED100" /><rect x="390" y="30" width="10" height="10" fill="#101010" /><rect x="390" y="40" width="10" height="10" fill="#F2F2F2" /><rect x="390" y="50" width="10" height="10" fill="#F2F2F2" /><rect x="400" y="0" width="10" height="10" fill="#8C8C8C" /><rect x="400" y="10" width="10" height="10" fill="#7ED100" /><rect x="400" y="20" width="10" height="10" fill="#101010" /><rect x="400" y="30" width="10" height="10" fill="#F7F7F7" /><rect x="400" y="40" width="10" height="10" fill="#92F300" /><rect x="400" y="50" width="10" height="10" fill="#F2F2F2" /><rect x="410" y="0" width="10" height="10" fill="#7ED100" /><rect x="410" y="10" width="10" height="10" fill="#92F300" /><rect x="410" y="20" width="10" height="10" fill="#F2F2F2" /><rect x="410" y="30" width="10" height="10" fill="#7B8073" /><rect x="410" y="40" width="10" height="10" fill="#F7F7F7" /><rect x="410" y="50" width="10" height="10" fill="#101010" /><rect x="420" y="0" width="10" height="10" fill="#F2F2F2" /><rect x="420" y="10" width="10" height="10" fill="#101010" /><rect x="420" y="20" width="10" height="10" fill="#7ED100" /><rect x="420" y="30" width="10" height="10" fill="#F2F2F2" /><rect x="420" y="40" width="10" height="10" fill="#92F300" /><rect x="420" y="50" width="10" height="10" fill="#F7F7F7" /><rect x="430" y="0" width="10" height="10" fill="#F7F7F7" /><rect x="430" y="10" width="10" height="10" fill="#F2F2F2" /><rect x="430" y="20" width="10" height="10" fill="#F7F7F7" /><rect x="430" y="30" width="10" height="10" fill="#8C8C8C" /><rect x="430" y="40" width="10" height="10" fill="#F2F2F2" /><rect x="430" y="50" width="10" height="10" fill="#101010" /><rect x="440" y="0" width="10" height="10" fill="#7B8073" /><rect x="440" y="10" width="10" height="10" fill="#F7F7F7" /><rect x="440" y="20" width="10" height="10" fill="#F2F2F2" /><rect x="440" y="30" width="10" height="10" fill="#101010" /><rect x="440" y="40" width="10" height="10" fill="#7B8073" /><rect x="440" y="50" width="10" height="10" fill="#F7F7F7" /><rect x="450" y="0" width="10" height="10" fill="#7ED100" /><rect x="450" y="10" width="10" height="10" fill="#F7F7F7" /><rect x="450" y="20" width="10" height="10" fill="#92F300" /><rect x="450" y="30" width="10" height="10" fill="#F2F2F2" /><rect x="450" y="40" width="10" height="10" fill="#F2F2F2" /><rect x="450" y="50" width="10" height="10" fill="#7B8073" /><rect x="460" y="0" width="10" height="10" fill="#101010" /><rect x="460" y="10" width="10" height="10" fill="#7B8073" /><rect x="460" y="20" width="10" height="10" fill="#7ED100" /><rect x="460" y="30" width="10" height="10" fill="#8C8C8C" /><rect x="460" y="40" width="10" height="10" fill="#F2F2F2" /><rect x="460" y="50" width="10" height="10" fill="#F2F2F2" /><rect x="470" y="0" width="10" height="10" fill="#8C8C8C" /><rect x="470" y="10" width="10" height="10" fill="#7ED100" /><rect x="470" y="20" width="10" height="10" fill="#8C8C8C" /><rect x="470" y="30" width="10" height="10" fill="#92F300" /><rect x="470" y="40" width="10" height="10" fill="#8C8C8C" /><rect x="470" y="50" width="10" height="10" fill="#F2F2F2" />
    </g>
  </svg>